<?xml version="1.0" encoding="UTF-8"?><svg xmlns="http://www.w3.org/2000/svg" xmlns:xlink="http://www.w3.org/1999/xlink" viewBox="0 0 200 200"><defs><style>.cls-1{fill:url(#linear-gradient-4);}.cls-2{fill:url(#linear-gradient-3);}.cls-3{fill:url(#linear-gradient-2);}.cls-4{fill:url(#linear-gradient);}.cls-5{fill:#fff;}</style><linearGradient id="linear-gradient" x1="56.97" y1="66.31" x2="72.16" y2="66.31" gradientUnits="userSpaceOnUse"><stop offset="0" stop-color="#86bc25"/><stop offset="1" stop-color="#0d8390"/></linearGradient><linearGradient id="linear-gradient-2" x1="84.61" y1="70.91" x2="109" y2="70.91" xlink:href="#linear-gradient"/><linearGradient id="linear-gradient-3" x1="70.55" y1="88.48" x2="73.79" y2="112.58" gradientUnits="userSpaceOnUse"><stop offset="0" stop-color="#86bc25"/><stop offset="1" stop-color="#0d8390"/></linearGradient><linearGradient id="linear-gradient-4" x1="89.61" y1="93.96" x2="124.43" y2="129.05" xlink:href="#linear-gradient"/></defs><g id="BG"><rect width="200" height="200"/></g><g id="Stuff"><path class="cls-5" d="M99.91,17.68h-57.72c-1.39,0-2.75.14-4.07.39l29.35,29.65c3.56,3.6,8.86,4.73,13.65,3.1,18.62-6.32,40.14-1.63,54.42,14.04,17.87,19.61,17.64,50.16-.52,69.5-20.01,21.31-53.52,21.57-73.86.96-14.21-14.39-18.14-35.07-11.88-52.95,1.68-4.79.61-10.1-2.95-13.7l-26.4-26.67v118.06c0,12.3,9.97,22.27,22.27,22.27h57.72c45.46,0,82.32-36.85,82.32-82.32h0c0-45.46-36.85-82.32-82.32-82.32Z"/><circle class="cls-4" cx="64.57" cy="66.31" r="7.59"/><circle class="cls-3" cx="96.81" cy="70.91" r="12.2"/><path class="cls-2" d="M89.17,105.25c-6.58,7.68-15.56,11.67-21.66,11.67-2.87,0-6.19-.56-8.25-2.74-4.22-4.46-2.35-10.79,3.58-13.9,5.66-2.93,11.42-.89,16.87,1.66,3.03,1.41,6.26,2.47,9.46,3.32Z"/><path class="cls-1" d="M139.13,99.03c0,.54-.01,1.08-.03,1.62-.29,6.35-1.97,12.3-4.77,17.6-.06.17-.15.33-.26.48-.14.28-.29.54-.46.82-.26.48-.55.97-.86,1.44-.26.43-.54.85-.82,1.26-.53.79-1.09,1.55-1.69,2.29-.86,1.11-1.79,2.16-2.8,3.2-.48.5-.98.98-1.51,1.47-.51.47-1.04.93-1.57,1.39-.51.43-1.03.85-1.55,1.25-.11.1-.24.18-.35.26-.47.35-.94.69-1.43,1.03-.03.03-.06.04-.08.06-.55.37-1.12.73-1.69,1.09-.03.03-.04.04-.07.04-.9.54-1.82,1.07-2.76,1.54-.65.35-1.3.67-1.97.96-.62.28-1.26.54-1.9.79-.29.12-.57.24-.86.33-.39.15-.76.28-1.15.4-.24.08-.47.17-.72.24-1.47.47-2.96.85-4.49,1.14-.35.07-.71.14-1.07.19-.36.07-.71.12-1.07.17-.24.04-.48.07-.72.1-1.68.21-3.37.32-5.08.32h-.28c-.19,0-.4-.01-.6-.03-.54-.01-1.08-.03-1.62-.06-10.11-.62-19.24-4.85-26.12-11.42-.22-.19-.44-.4-.65-.62-1.98-1.97-3.78-4.16-5.32-6.5,1.48.36,2.94.53,4.27.57.36.01.71.03,1.04.03,7.1,0,13.8-3.03,19.29-7.38s9.51-10.3,13.48-16.33c5.15-7.82,11.92-17.29,21.86-18.97,1.07-.18,2.06-.28,3.01-.28.65,0,1.29.04,1.88.12.28.04.54.08.8.14s.51.11.76.18c.72.19,1.4.46,2.02.78.21.1.4.21.58.32,1,.58,1.88,1.32,2.65,2.18.15.17.3.35.46.53.48.6.91,1.26,1.3,1.95.08.14.15.28.22.42.33.62.62,1.27.89,1.95.08.22.17.44.24.67.14.4.28.82.39,1.23.08.26.15.51.21.78.07.26.12.51.18.78.24,1.05.42,2.13.53,3.23.04.28.07.55.08.82.11,1.16.15,2.33.15,3.48Z"/></g></svg>